<?xml version="1.0" ?><!-- Uploaded to: SVG Repo, www.svgrepo.com, Generator: SVG Repo Mixer Tools -->
<svg width="800px" height="800px" viewBox="0 0 50 50" data-name="Layer 1" id="Layer_1" xmlns="http://www.w3.org/2000/svg"><defs><style>.cls-1{fill:#231f20;}.cls-2{fill:#ffba50;}.cls-3{fill:#ffffff;}.cls-4{fill:#8d7f89;}.cls-5{fill:#c6b9c4;}</style></defs><title/><path class="cls-1" d="M43,10.417H36.146V7a2.5,2.5,0,0,0-2.5-2.5H16.354a2.5,2.5,0,0,0-2.5,2.5v3.417H7a2.5,2.5,0,0,0-2.5,2.5V34.255a2.5,2.5,0,0,0,2.5,2.5H18.216L17.19,41.831H15.035a1.835,1.835,0,0,0,0,3.669h19.93a1.835,1.835,0,0,0,0-3.669H32.81l-1.026-5.076H43a2.5,2.5,0,0,0,2.5-2.5V12.917A2.5,2.5,0,0,0,43,10.417Z"/><path class="cls-2" d="M35.146,7v9.293a1.5,1.5,0,0,1-1.5,1.5h-1.19V16.669a.5.5,0,0,0-1,0v1.124H27.818V16.669a.5.5,0,0,0-1,0v1.124H23.182V16.669a.5.5,0,0,0-1,0v1.124H18.544V16.669a.5.5,0,0,0-1,0v1.124h-1.19a1.5,1.5,0,0,1-1.5-1.5V7a1.464,1.464,0,0,1,.052-.371l9.874,4.838a.5.5,0,0,0,.44,0l9.874-4.838A1.464,1.464,0,0,1,35.146,7Z"/><path class="cls-2" d="M33.646,5.5a1.49,1.49,0,0,1,.882.292L25,10.461,15.472,5.792a1.49,1.49,0,0,1,.882-.292Z"/><path class="cls-3" d="M7,11.417h6.854v4.876a2.5,2.5,0,0,0,2.5,2.5h1.19v2.1a.5.5,0,0,0,1,0v-2.1h3.638v6.4a.5.5,0,0,0,1,0v-6.4h3.636V29.472a.5.5,0,0,0,1,0V18.793h3.638v.969a.5.5,0,0,0,1,0v-.969h1.19a2.5,2.5,0,0,0,2.5-2.5V11.417H43a1.5,1.5,0,0,1,1.5,1.5V32.086H5.5V12.917A1.5,1.5,0,0,1,7,11.417Z"/><path class="cls-4" d="M35.8,43.666a.835.835,0,0,1-.834.834H15.035a.835.835,0,0,1,0-1.669h19.93A.836.836,0,0,1,35.8,43.666Z"/><polygon class="cls-4" points="31.79 41.831 18.21 41.831 19.236 36.755 30.764 36.755 31.79 41.831"/><path class="cls-5" d="M43,35.755H7a1.5,1.5,0,0,1-1.5-1.5V33.086h39v1.169A1.5,1.5,0,0,1,43,35.755Z"/><path class="cls-1" d="M18.044,24.222a.5.5,0,0,0,.5-.5V22.441a.5.5,0,0,0-1,0v1.281A.5.5,0,0,0,18.044,24.222Z"/><path class="cls-1" d="M31.956,22.75a.5.5,0,0,0,.5-.5v-.937a.5.5,0,0,0-1,0v.937A.5.5,0,0,0,31.956,22.75Z"/><path class="cls-1" d="M22.682,28.691a.5.5,0,0,0,.5-.5V26.985a.5.5,0,0,0-1,0v1.206A.5.5,0,0,0,22.682,28.691Z"/></svg>