<?xml version="1.0" encoding="utf-8"?><!-- Uploaded to: SVG Repo, www.svgrepo.com, Generator: SVG Repo Mixer Tools -->
<svg width="800px" height="800px" viewBox="0 0 64 64" fill="none" xmlns="http://www.w3.org/2000/svg">
<path d="M8 15C8 12.2386 10.2386 10 13 10H22.4289C23.755 10 25.0268 10.5268 25.9645 11.4645L29.0355 14.5355C29.9732 15.4732 31.245 16 32.5711 16H51C53.7614 16 56 18.2386 56 21V43C56 45.7614 53.7614 48 51 48H13C10.2386 48 8 45.7614 8 43V15Z" fill="#0F277F"/>
<path fill-rule="evenodd" clip-rule="evenodd" d="M12.9393 47.9996C11.5362 47.9829 10.2721 47.3883 9.37399 46.4427L18.1221 10H22.0611L12.9393 47.9996ZM14.9087 48H16.8782L25.7064 11.2239C25.1968 10.7817 24.6062 10.4498 23.9721 10.2441L14.9087 48Z" fill="white"/>
<path fill-rule="evenodd" clip-rule="evenodd" d="M34.8896 32.2249C34.7859 31.8103 34.9641 31.3829 35.2861 31.1019C36.3364 30.1853 37 28.8368 37 27.3333C37 24.5719 34.7614 22.3333 32 22.3333C29.2386 22.3333 27 24.5719 27 27.3333C27 28.8368 27.6636 30.1853 28.7139 31.1019C29.0359 31.3829 29.2141 31.8103 29.1104 32.2249L27.3106 39.4241C27.1528 40.0553 27.6302 40.6667 28.2808 40.6667H35.7192C36.3698 40.6667 36.8472 40.0553 36.6894 39.4241L34.8896 32.2249Z" fill="#FDAFA4"/>
</svg>