<svg xmlns="http://www.w3.org/2000/svg" width="1952" height="1951" viewBox="0 0 1952 1951" version="1.1"><path d="" stroke="none" fill="#3c5c94" fill-rule="evenodd"/><path d="M 930 1.022 C 854.764 5.166, 788.457 15.398, 722.639 33.018 C 619.603 60.603, 525.515 103.220, 435.466 163.091 C 413.229 177.876, 372.348 208.017, 357.396 220.652 C 303.815 265.927, 264.139 305.499, 222.769 354.926 C 195.508 387.496, 163.308 433.140, 138.767 474 C 65.903 595.314, 20.023 732.721, 6.009 871.597 C 1.575 915.538, 1.040 926.786, 1.050 976 C 1.058 1019.612, 1.292 1025.685, 4.470 1064.725 C 8.011 1108.233, 19.155 1172.849, 31.077 1219 C 73.494 1383.193, 160.106 1536.489, 278.478 1656.881 C 330.321 1709.608, 376.545 1748.003, 435 1786.894 C 509.857 1836.696, 585.192 1873.540, 669.406 1901.532 C 716.680 1917.246, 753.937 1926.647, 803.998 1935.493 C 872.330 1947.568, 903.307 1950.277, 972.500 1950.227 C 1020.084 1950.193, 1039.820 1949.232, 1080.983 1944.944 C 1201.362 1932.407, 1323.922 1894.938, 1431.426 1837.807 C 1736.521 1675.670, 1932.845 1368.321, 1949.979 1026 C 1951.408 997.454, 1950.687 928.413, 1948.688 902.500 C 1938.716 773.170, 1906.391 655.503, 1849.378 541 C 1811.059 464.042, 1767.510 399.079, 1709.344 332.106 C 1692.946 313.226, 1638.935 259.282, 1619 241.875 C 1513.276 149.557, 1392.063 82, 1261.045 42.372 C 1188.451 20.415, 1125.126 8.708, 1045 2.431 C 1021.179 0.565, 953.378 -0.266, 930 1.022 M 938.500 39.107 C 816.184 44.904, 709.005 69.465, 600.500 116.563 C 577.790 126.420, 531.576 149.718, 509.981 162.196 C 375.672 239.802, 263.063 347.961, 182.140 477.085 C 125.677 567.178, 85.043 665.189, 62.128 766.559 C 54.223 801.528, 45.749 853.681, 42.559 887 C 36.558 949.666, 37.577 1018.637, 45.514 1087 C 59.366 1206.318, 97.264 1323.509, 156.272 1429.500 C 215.228 1535.395, 290.752 1625.211, 387.586 1704.582 C 437.800 1745.741, 501.178 1786.262, 562.500 1816.415 C 657.988 1863.369, 756.986 1892.599, 867.500 1906.469 C 923.663 1913.518, 970.510 1914.444, 1043 1909.937 C 1135.206 1904.205, 1231.643 1882.102, 1322 1845.990 C 1422.760 1805.722, 1510.463 1751.878, 1594.500 1678.694 C 1613.523 1662.127, 1651.662 1624.398, 1671.521 1602.500 C 1744.649 1521.864, 1805.467 1424.771, 1845.032 1325.500 C 1866.107 1272.620, 1884.963 1209.511, 1895.378 1157 C 1916.464 1050.680, 1918.444 930.433, 1900.851 824.500 C 1894.123 783.987, 1885.990 748.733, 1873.514 706 C 1843.705 603.902, 1791.509 500.639, 1724.953 412.088 C 1698.543 376.951, 1677.319 352.454, 1644.004 318.653 C 1608.077 282.201, 1577.392 255.274, 1538 225.629 C 1427.612 142.556, 1305.834 87.598, 1165.514 57.530 C 1097.689 42.996, 1008.742 35.778, 938.500 39.107 M 1323 509.607 C 1289.215 513.690, 1286.316 514.421, 1280.373 520.364 C 1277.966 522.771, 1275.758 526.181, 1275.102 528.503 C 1274.271 531.450, 1274.247 544.450, 1275.013 578 C 1275.584 603.025, 1276.719 661.412, 1277.536 707.750 C 1278.426 758.236, 1279.453 794.015, 1280.100 797.029 C 1281.585 803.956, 1284.956 807.641, 1291.567 809.562 C 1296.065 810.870, 1302.069 811.078, 1327.730 810.815 C 1361.761 810.465, 1362.957 810.263, 1369.869 803.699 C 1377.323 796.622, 1378.200 790.433, 1376.969 753.606 C 1376.434 737.598, 1375.327 686.250, 1374.510 639.500 C 1373.692 592.750, 1372.552 550.675, 1371.976 546 C 1370.608 534.882, 1368.446 526.457, 1365.907 522.349 C 1363.071 517.760, 1356.782 512.587, 1352.275 511.134 C 1348.356 509.871, 1329.119 508.868, 1323 509.607 M 636.500 540.995 C 627.673 542.057, 622.383 543.727, 614 548.099 C 599.184 555.827, 588.128 568.769, 582.457 585.024 L 579.500 593.500 579.221 767.500 C 579.032 885.612, 579.281 943.698, 579.995 948.343 C 583.885 973.645, 601.900 993.831, 627.567 1001.649 C 633.220 1003.371, 647.169 1003.472, 923 1003.776 C 1122.057 1003.996, 1215.391 1003.766, 1221.753 1003.038 C 1250.522 999.749, 1272.644 979.698, 1278.435 951.660 C 1279.721 945.433, 1280 935.960, 1280 898.444 L 1280 852.804 1276.750 854.968 C 1269.432 859.841, 1266.967 860.454, 1253.250 860.811 L 1240 861.155 1240 899.896 C 1240 931.534, 1239.723 939.569, 1238.490 943.721 C 1236.489 950.459, 1229.683 957.995, 1222.779 961.114 L 1217.500 963.500 929.500 963.500 L 641.500 963.500 636.273 961.137 C 630.464 958.510, 624.024 952.141, 621.292 946.317 C 619.591 942.695, 619.500 933.803, 619.500 772 L 619.500 601.500 621.858 597 C 624.893 591.207, 629.464 586.385, 634.500 583.662 L 638.500 581.500 821.500 581 C 981.091 580.564, 1004.459 580.314, 1004.181 579.043 C 1002.873 573.070, 1004.185 563.757, 1007.874 552.824 C 1010.041 546.402, 1011.556 540.889, 1011.240 540.574 C 1010.399 539.732, 643.571 540.145, 636.500 540.995 M 1101.500 590.499 C 1100.400 590.699, 1091.850 591.378, 1082.500 592.008 C 1062.400 593.361, 1057.420 594.686, 1052.670 599.943 C 1047.956 605.162, 1046.854 610.968, 1047.576 626.805 C 1047.895 633.787, 1048.774 674.825, 1049.531 718 C 1050.391 767.088, 1051.320 798.179, 1052.010 800.980 C 1053.596 807.418, 1057.099 811.499, 1062.722 813.458 C 1068.935 815.622, 1095.926 816.513, 1116.679 815.237 C 1130.169 814.408, 1132.489 813.996, 1137.528 811.530 C 1144.144 808.293, 1148.244 802.753, 1149.967 794.721 C 1150.751 791.063, 1150.760 775.183, 1150 738.069 C 1148.147 647.677, 1147.169 620.052, 1145.563 612.684 C 1142.953 600.714, 1138.082 594.579, 1129.118 591.967 C 1125.465 590.903, 1105.200 589.826, 1101.500 590.499 M 809.166 619.300 C 808.573 620.014, 807.781 622.520, 807.405 624.867 C 806.511 630.462, 804.807 632, 799.503 632 C 795.436 632, 794.997 631.727, 792.825 627.841 C 789.181 621.322, 788.069 621.044, 780.527 624.763 C 773.079 628.436, 772.477 630.095, 776.053 637.104 L 778.106 641.129 774.118 645.118 L 770.129 649.106 766.104 647.053 C 759.401 643.633, 757.596 644.177, 754.075 650.678 C 752.384 653.800, 751 657.106, 751 658.023 C 751 659.992, 753.264 662.133, 757.750 664.405 C 760.675 665.887, 761 666.491, 761 670.454 C 761 675.871, 759.442 677.557, 753.631 678.428 C 747.517 679.345, 746.651 680.682, 747.489 687.907 C 748.489 696.523, 749.524 697.544, 756.890 697.179 C 762.809 696.886, 763.004 696.958, 764.974 700.189 C 767.818 704.855, 767.510 707.113, 763.500 711 C 761.575 712.866, 760 715.108, 760 715.984 C 760 718.534, 769.217 727, 771.992 727 C 773.428 727, 775.927 725.524, 778.124 723.379 L 781.832 719.758 786.166 722.175 L 790.500 724.592 790.223 730.651 C 789.887 737.994, 790.563 738.719, 799.025 740.081 C 806.584 741.299, 808.455 740.121, 809.445 733.521 C 810.221 728.342, 811.137 727.481, 816.786 726.619 C 820.831 726.002, 821.169 726.140, 822.786 729.081 C 827.693 738.004, 828.913 738.338, 837.720 733.174 C 843.261 729.925, 843.990 727.673, 841.058 722.864 C 838.255 718.266, 838.449 716.926, 842.482 713.017 L 845.965 709.642 850.835 711.923 C 853.513 713.177, 856.559 714.045, 857.602 713.852 C 858.774 713.635, 860.840 710.893, 863 706.691 L 866.500 699.881 863.887 697.691 C 862.449 696.486, 859.854 694.729, 858.119 693.786 C 855.134 692.165, 855 691.843, 855.619 687.786 C 856.481 682.137, 857.342 681.221, 862.521 680.445 C 869.225 679.439, 870.370 677.559, 868.975 669.852 C 868.342 666.358, 867.349 662.925, 866.767 662.223 C 866.070 661.380, 863.648 661.040, 859.651 661.223 L 853.592 661.500 851.175 657.166 L 848.758 652.832 852.379 649.124 C 857.343 644.040, 857.126 641.534, 851.216 635.712 C 848.584 633.121, 845.748 631, 844.912 631 C 844.076 631, 841.866 632.575, 840 634.500 C 836.167 638.454, 834.585 638.723, 829.479 636.288 L 825.889 634.577 826.171 628.314 C 826.497 621.054, 825.843 620.086, 819.830 618.924 C 813.557 617.712, 810.392 617.823, 809.166 619.300 M 800 648.935 C 795.022 650.455, 789.425 653.909, 785.856 657.665 C 774.424 669.695, 774.089 687.867, 785.069 700.341 C 796.703 713.558, 817.851 714.082, 830.467 701.467 C 835.054 696.879, 838.869 688.900, 839.657 682.244 C 840.813 672.484, 835.120 659.997, 826.749 653.933 C 819.754 648.866, 807.641 646.603, 800 648.935 M 1181.859 665.993 C 1172.182 667.682, 1165.515 673, 1163.141 680.922 C 1160.989 688.107, 1162.597 791.226, 1164.988 799.277 C 1165.604 801.355, 1167.540 804.684, 1169.289 806.676 C 1174.990 813.170, 1175.856 813.303, 1210.932 813.079 C 1228.219 812.969, 1244.607 812.454, 1247.349 811.934 C 1256.271 810.242, 1261.269 805.947, 1263.073 798.423 C 1264.184 793.789, 1263.281 701.109, 1261.990 687.250 C 1260.904 675.596, 1258.534 670.937, 1252.066 667.750 C 1247.658 665.578, 1246.445 665.495, 1217 665.341 C 1200.225 665.254, 1184.411 665.547, 1181.859 665.993 M 918 719 C 916.387 720.613, 916 722.333, 916 727.889 C 916 733.058, 915.546 735.339, 914.183 737.023 C 912.301 739.346, 902.734 742.833, 899.872 742.238 C 898.976 742.052, 896.173 739.233, 893.641 735.974 C 887.545 728.123, 885.556 727.690, 878.340 732.638 C 870.116 738.279, 867 741.466, 867 744.238 C 867 745.578, 868.800 749.188, 871 752.260 C 873.200 755.333, 875 758.780, 875 759.921 C 875 762.607, 868.455 771.721, 865.956 772.514 C 864.897 772.850, 860.874 772.109, 857.017 770.866 L 850.003 768.607 847.261 770.655 C 845.369 772.067, 843.833 774.842, 842.310 779.601 C 838.287 792.164, 839.195 794.465, 849.570 798.010 C 852.831 799.124, 856.063 800.789, 856.750 801.709 C 857.438 802.629, 858 805.946, 858 809.080 C 858 816.174, 856.402 818.207, 849 820.530 C 845.975 821.480, 842.712 822.944, 841.750 823.783 C 839.285 825.934, 839.624 831.104, 842.813 839.982 C 846.232 849.502, 848.014 850.379, 857.600 847.262 C 861.279 846.066, 864.989 845.430, 866.034 845.817 C 868.408 846.695, 875 855.900, 875 858.338 C 875 859.352, 873.166 862.797, 870.924 865.993 C 865.162 874.207, 865.577 875.960, 875 883.214 C 885.508 891.303, 888.598 890.859, 895.109 880.324 C 897.741 876.065, 900.613 875.395, 907.202 877.502 C 914.802 879.932, 916 881.710, 916 890.554 C 916 900.289, 916.957 901, 930.068 901 C 942.441 901, 943.339 900.214, 943.851 888.934 C 944.048 884.610, 944.724 880.665, 945.354 880.168 C 947.596 878.400, 957.133 875.817, 959.358 876.375 C 960.602 876.687, 963.124 879.093, 964.962 881.721 C 971.031 890.401, 973.512 890.946, 981.366 885.328 C 993.585 876.587, 994.286 874.518, 988 865.740 C 985.800 862.667, 984 859.363, 984 858.397 C 984 855.923, 990.067 847.327, 992.661 846.125 C 994.274 845.378, 996.493 845.667, 1001.395 847.260 C 1011.309 850.484, 1012.722 849.672, 1016.676 838.485 C 1021.059 826.084, 1020.112 823.562, 1009.915 820.474 C 1002.478 818.222, 1001 816.284, 1001 808.777 C 1001 804.333, 1001.462 802.538, 1003 801 C 1004.100 799.900, 1005.433 799, 1005.962 799 C 1006.492 799, 1009.379 798.082, 1012.379 796.959 C 1019.957 794.124, 1020.602 791.957, 1017.122 781.023 C 1015.190 774.953, 1013.728 772.140, 1011.734 770.651 L 1008.997 768.607 1001.983 770.866 C 998.126 772.109, 994.120 772.855, 993.081 772.526 C 990.900 771.833, 984 762.246, 984 759.907 C 984 759.041, 985.800 755.762, 988 752.621 C 994.096 743.919, 993.711 742.261, 983.913 734.996 C 979.466 731.698, 975.066 729, 974.136 729 C 971.538 729, 968.345 731.638, 964.923 736.612 C 963.212 739.099, 960.844 741.492, 959.662 741.929 C 957.498 742.730, 948.027 740.097, 945.486 737.989 C 944.779 737.402, 944.054 733.499, 943.783 728.819 C 943.147 717.818, 942.151 717, 929.389 717 C 921.333 717, 919.716 717.284, 918 719 M 917.754 763.031 C 906.498 765.844, 893.334 776.184, 887.779 786.575 C 872.341 815.454, 890.021 850.762, 922.582 856.081 C 950.251 860.600, 976.933 837.737, 976.988 809.460 C 977.024 791.082, 966.994 775.058, 950.264 766.768 C 942.104 762.725, 941.293 762.531, 931.616 762.318 C 926.052 762.195, 919.814 762.516, 917.754 763.031 M 1309.500 823.074 C 1287.500 823.485, 1228.775 824.567, 1179 825.478 C 1129.225 826.389, 1077.322 827.444, 1063.659 827.822 L 1038.819 828.509 1036.409 831.310 C 1033.073 835.190, 1033.076 841.816, 1036.417 845.694 L 1038.834 848.500 1058.667 848.226 C 1086.962 847.834, 1232.514 845.216, 1298 843.921 C 1328.525 843.317, 1361.825 842.806, 1372 842.785 C 1393.494 842.741, 1395.320 842.241, 1397.019 835.928 C 1398.479 830.509, 1396.843 825.487, 1392.966 823.483 C 1389.745 821.817, 1379.439 821.766, 1309.500 823.074 M 547.012 1048.750 C 547.053 1065.383, 559.445 1083.499, 576.309 1091.581 C 591.437 1098.831, 584.590 1098.500, 719.500 1098.500 L 840.500 1098.500 841.059 1091.327 C 841.770 1082.189, 845.395 1075.887, 852.448 1071.526 L 857.343 1068.500 929.500 1068.500 L 1001.657 1068.500 1006.578 1071.536 C 1013.473 1075.789, 1017.684 1083.024, 1018.585 1092.162 L 1019.266 1099.075 1140.883 1098.766 L 1262.500 1098.458 1270.300 1096.257 C 1295.340 1089.192, 1311.864 1070.355, 1311.976 1048.750 L 1312 1044 929.500 1044 L 547 1044 547.012 1048.750 M 631.270 1156.991 C 620.126 1159.357, 612.125 1166.060, 607.885 1176.581 L 605.500 1182.500 605.213 1256.250 L 604.927 1330 624.963 1330 L 645 1330 645 1272.082 C 645 1240.227, 645.273 1213.452, 645.607 1212.582 C 645.941 1211.712, 646.996 1211, 647.952 1211 C 649.080 1211, 664.496 1230.643, 691.840 1266.918 C 715.023 1297.673, 735.845 1324.423, 738.112 1326.364 C 742.975 1330.526, 749.202 1332.866, 757.558 1333.670 C 774.004 1335.253, 786.006 1325.020, 788.945 1306.910 C 789.594 1302.911, 789.988 1274.075, 789.992 1230.250 L 790 1160 770 1160 L 750 1160 750 1216.441 C 750 1253.323, 749.650 1273.098, 748.991 1273.506 C 748.436 1273.848, 747.199 1273.852, 746.241 1273.513 C 745.283 1273.174, 727.850 1249.932, 707.500 1221.863 C 668.616 1168.232, 663.007 1161.557, 654.320 1158.589 C 648.420 1156.572, 636.978 1155.779, 631.270 1156.991 M 1407.972 1157.295 C 1396.999 1159.785, 1390.256 1165.678, 1385.421 1177 C 1383.593 1181.282, 1383.486 1185.090, 1383.219 1255.750 L 1382.939 1330 1402.969 1330 L 1423 1330 1423 1271.059 C 1423 1232.495, 1423.349 1211.902, 1424.009 1211.494 C 1424.564 1211.152, 1425.801 1211.145, 1426.759 1211.481 C 1427.717 1211.816, 1446.897 1236.580, 1469.382 1266.511 C 1491.867 1296.442, 1511.892 1322.566, 1513.882 1324.563 C 1518.773 1329.474, 1523.554 1331.758, 1531.957 1333.199 C 1544.616 1335.370, 1554.837 1331.490, 1561.011 1322.170 C 1567.120 1312.946, 1567 1314.723, 1567 1233.818 L 1567 1160 1547.500 1160 L 1528 1160 1528 1215.418 C 1528 1245.898, 1527.727 1271.548, 1527.393 1272.418 C 1527.059 1273.288, 1525.998 1274, 1525.035 1274 C 1523.875 1274, 1510.404 1256.316, 1485.113 1221.590 C 1464.119 1192.765, 1445.097 1167.514, 1442.841 1165.476 C 1434.188 1157.658, 1420.512 1154.449, 1407.972 1157.295 M 198.186 1161.118 C 173.683 1165.194, 156.706 1192.056, 160.908 1220.099 C 163.149 1235.058, 173.400 1250.622, 184.823 1256.410 C 195.189 1261.663, 198.409 1262, 238.242 1262 C 278.760 1262, 280.515 1262.228, 283.434 1267.872 C 285.998 1272.831, 285.470 1278.442, 282.082 1282.234 L 279.165 1285.500 221.582 1285.774 L 164 1286.048 164 1308.024 L 164 1330 226.395 1330 C 286.350 1330, 289.047 1329.920, 295.387 1327.962 C 308.780 1323.825, 320.171 1311.870, 325.125 1296.748 C 328.439 1286.633, 328.457 1271.424, 325.166 1261.810 C 318.886 1243.459, 305.255 1231.603, 287.500 1229.047 C 283.650 1228.493, 264.228 1228.031, 244.339 1228.020 L 208.178 1228 205.589 1224.923 C 203.559 1222.511, 203 1220.767, 203 1216.846 C 203 1212.653, 203.472 1211.374, 205.923 1208.923 L 208.846 1206 264.923 1206 L 321 1206 321 1183 L 321 1160 262.250 1160.117 C 229.938 1160.181, 201.109 1160.632, 198.186 1161.118 M 351 1245 L 351 1330 371.500 1330 L 392 1330 392 1245 L 392 1160 371.500 1160 L 351 1160 351 1245 M 451.389 1161.488 C 443.008 1163.311, 437.618 1166.269, 430.768 1172.803 C 405.976 1196.450, 411.733 1242.905, 441.228 1257.211 C 450.241 1261.583, 454.802 1262, 493.581 1262 C 534.014 1262, 535.501 1262.201, 538.545 1268.087 C 540.916 1272.672, 540.020 1279.434, 536.587 1282.868 L 533.956 1285.500 476.478 1285.774 L 419 1286.048 419 1308.024 L 419 1330 481.411 1330 C 538.996 1330, 544.273 1329.859, 549.661 1328.177 C 565.521 1323.226, 577.635 1308.890, 581.496 1290.500 C 583.332 1281.753, 583.349 1276.310, 581.566 1267.901 C 577.115 1246.902, 561.982 1231.852, 542.500 1229.047 C 538.650 1228.493, 519.249 1228.031, 499.386 1228.020 L 463.273 1228 460.759 1225.486 C 456.105 1220.832, 456.563 1212.062, 461.669 1208.045 C 464.219 1206.040, 465.370 1206, 520.135 1206 L 576 1206 576 1183 L 576 1160 516.750 1160.079 C 471.442 1160.140, 456.062 1160.472, 451.389 1161.488 M 830.637 1161.465 C 828.513 1162.222, 825.459 1164.102, 823.851 1165.643 C 817.956 1171.291, 817.918 1171.835, 818.223 1247.126 L 818.500 1315.556 821.025 1320.460 C 822.871 1324.046, 824.727 1325.988, 827.932 1327.682 L 832.315 1330 903.157 1330 L 974 1330 974 1308.008 L 974 1286.016 916.750 1285.758 L 859.500 1285.500 859.218 1273.750 L 858.937 1262 916.492 1262 L 974.048 1262 973.774 1245.250 L 973.500 1228.500 916.216 1228.242 L 858.933 1227.984 859.216 1217.242 L 859.500 1206.500 916.750 1206.242 L 974 1205.984 974 1182.992 L 974 1160 904.250 1160.044 C 847.641 1160.080, 833.772 1160.347, 830.637 1161.465 M 993 1183 L 993 1206 1025.500 1206 L 1058 1206 1058 1268 L 1058 1330 1078.500 1330 L 1099 1330 1099 1268 L 1099 1206 1131 1206 L 1163 1206 1163 1183 L 1163 1160 1078 1160 L 993 1160 993 1183 M 1185.017 1224.250 C 1185.036 1293.452, 1185.214 1296.236, 1190.351 1307.455 C 1195.336 1318.344, 1203.341 1324.635, 1216.496 1327.999 C 1223.761 1329.857, 1227.586 1330, 1270 1330 C 1312.414 1330, 1316.239 1329.857, 1323.504 1327.999 C 1336.465 1324.684, 1343.984 1318.885, 1349.542 1307.917 C 1355.116 1296.916, 1355.257 1295.021, 1355.729 1224.750 L 1356.164 1160 1335.613 1160 L 1315.062 1160 1314.781 1218.250 C 1314.520 1272.338, 1314.370 1276.738, 1312.684 1279.829 C 1309.442 1285.769, 1307.841 1286, 1270 1286 C 1232.480 1286, 1230.458 1285.720, 1227.566 1280.128 C 1226.197 1277.480, 1226 1269.741, 1226 1218.550 L 1226 1160 1205.500 1160 L 1185 1160 1185.017 1224.250 M 1655.500 1161.435 C 1627.253 1166.863, 1605.914 1187.510, 1596.310 1218.703 C 1593.814 1226.810, 1593.598 1228.873, 1593.559 1245 C 1593.522 1260.314, 1593.802 1263.499, 1595.804 1270.500 C 1602.755 1294.816, 1617.435 1313.285, 1637.500 1322.961 C 1650.495 1329.228, 1655.975 1330.002, 1687.197 1329.983 C 1719.089 1329.962, 1724.080 1329.225, 1737.633 1322.536 C 1784.033 1299.637, 1796.356 1230.675, 1761.807 1187.258 C 1752.514 1175.579, 1738.924 1166.535, 1724.500 1162.431 C 1716.343 1160.110, 1666.164 1159.385, 1655.500 1161.435 M 1658.500 1207.802 C 1647.786 1211.524, 1640.390 1218.996, 1636.119 1230.412 C 1628.620 1250.456, 1637.142 1273.250, 1655.266 1281.620 L 1661.500 1284.500 1687 1284.478 C 1708.536 1284.459, 1713.162 1284.193, 1716.761 1282.768 C 1732.440 1276.560, 1742.004 1260.632, 1740.760 1242.801 C 1739.543 1225.350, 1729.651 1211.944, 1714.719 1207.509 C 1706.900 1205.187, 1665.405 1205.403, 1658.500 1207.802" stroke="none" fill="#345c94" fill-rule="evenodd"/></svg>